# xmcd
# 
# Track frame offsets:
#     150
#     48512
#     68162
#     104912
#     164612
#     192887
#     241937
# 
# Disc length: 4101
# 
# Revision: 1
# Processed by: cddbd v1.5.2PL0 Copyright (c) Steve Scherf et al.
# Submitted via: BonkEnc v1.0.8
# 
DISCID=63100307
DTITLE=Franco Ambrosetti - Gin and Pentatonic
DYEAR=1985
DGENRE=Contemporary Jazz
TTITLE0=Miss, Your Quelque Chose
TTITLE1=More Wings For Wheelers
TTITLE2=Yes Or No
TTITLE3=Gin And Pentatonic
TTITLE4=Autum Leaves
TTITLE5=Ode To A Princess
TTITLE6=Atisiul
EXTD=
EXTT0=
EXTT1=
EXTT2=
EXTT3=
EXTT4=
EXTT5=
EXTT6=
PLAYORDER=
